<?xml version="1.0" encoding="UTF-8" standalone="no"?>
<!DOCTYPE svg PUBLIC "-//W3C//DTD SVG 1.1//EN" "http://www.w3.org/Graphics/SVG/1.1/DTD/svg11.dtd">
<svg width="100%" height="100%" viewBox="0 0 500 500" version="1.1" xmlns="http://www.w3.org/2000/svg" xmlns:xlink="http://www.w3.org/1999/xlink" xml:space="preserve" xmlns:serif="http://www.serif.com/" style="fill-rule:evenodd;clip-rule:evenodd;stroke-linecap:round;stroke-linejoin:round;stroke-miterlimit:1.5;">
    <g transform="matrix(0.849429,0,0,0.849429,30.107926,8.269875)">
        <g transform="matrix(1.421505,0,0,1.421505,-86.284537,-50.231525)">
            <path d="M253.003,165.17C258.99,161.321 264.492,158.713 273.531,158.445C288.634,157.998 331.504,168.719 350.564,188.326C363.328,201.455 372.076,221.879 372.546,252.928C373.348,306.02 353.716,326.565 332.475,350.881C322.613,362.171 307.36,370.022 292.297,375.49C269.376,383.811 246.767,386.574 243.068,386.413C242.416,386.384 241.787,386.477 241.202,386.672C240.617,386.477 239.987,386.384 239.335,386.413C235.637,386.574 213.027,383.811 190.107,375.49C175.043,370.022 159.79,362.171 149.928,350.881C128.688,326.565 109.056,306.02 109.858,252.928C110.327,221.875 119.036,201.448 131.743,188.317C150.707,168.719 194.557,157.631 211.891,157.922C220.015,158.058 226.026,161.699 231.74,165.38" style="fill:white;fill-opacity:0;stroke:black;stroke-width:10.35px;"/>
        </g>
        <g transform="matrix(1.473076,0,0,1.587974,-99.563302,-114.630205)">
            <path d="M242.951,183.346L242.857,174.813L242.322,136.708C240.785,115.52 338.223,96.252 335.516,118.488C331.406,152.25 275.941,179.169 246.049,139.013" style="stroke:black;stroke-width:19.22px;stroke-linecap:square;"/>
        </g>
        <g transform="matrix(1,0,0,1.162224,14.127131,-9.438815)">
            <path d="M208.059,193.529L244.358,213.414L281.213,192.458" style="fill:none;stroke:black;stroke-width:9.95px;"/>
        </g>
        <g transform="matrix(1.177261,0,0,1.177261,-21.317752,10.670056)">
            <path d="M248.392,149.059L249.392,182.857" style="fill:none;stroke:black;stroke-width:12.5px;"/>
        </g>
        <g transform="matrix(1.177261,0,0,1.177261,-21.317752,10.670056)">
            <path d="M225.892,148.309L226.392,183.975" style="fill:none;stroke:black;stroke-width:12.5px;"/>
        </g>
        <g transform="matrix(1.459912,0,0,1.459912,-97.130965,-71.618973)">
            <path d="M171.805,265.313C166.774,263.815 162.323,260.546 159.495,255.756C153.393,245.419 157.151,231.884 167.881,225.55C178.611,219.216 192.276,222.467 198.378,232.805C199.082,233.997 199.655,235.232 200.101,236.494C212.366,229.532 227.079,225.475 242.892,225.475C258.049,225.475 272.195,229.203 284.144,235.643C284.865,232.949 286.128,230.372 287.955,228.069C295.417,218.667 309.482,217.386 319.343,225.212C329.203,233.038 331.151,247.025 323.688,256.428C320.881,259.966 317.139,262.354 313.038,263.539C317.755,272.094 320.392,281.648 320.392,291.725C320.392,328.29 285.665,349.382 242.892,349.382C200.119,349.382 165.392,328.29 165.392,291.725C165.392,282.339 167.68,273.407 171.805,265.313Z" style="stroke:black;stroke-width:8.4px;"/>
        </g>
        <g transform="matrix(1.402757,0,0,1.557379,-105.336298,-116.926001)">
            <g transform="matrix(1.314919,0,0,0.536148,18.121339,148.030608)">
                <circle cx="211.392" cy="291.975" r="14" style="fill:white;stroke:black;stroke-width:3.43px;"/>
            </g>
            <g transform="matrix(1.314919,0,0,0.536148,-57.800602,148.030608)">
                <circle cx="211.392" cy="291.975" r="14" style="fill:white;stroke:black;stroke-width:3.43px;"/>
            </g>
            <g transform="matrix(0.990234,-0.125576,0.139336,0.891392,-34.015897,66.357344)">
                <g transform="matrix(0.677521,-0,-0,0.677521,90.738445,71.13929)">
                    <path d="M229.184,343.618L243.388,364.475" style="fill:none;stroke:rgb(250,250,250);stroke-width:5.16px;"/>
                </g>
                <g transform="matrix(0.140113,0.597063,-0.735943,0.140113,478.2785,120.329641)">
                    <path d="M229.184,343.618L243.388,364.475" style="stroke:rgb(250,250,250);stroke-width:5.22px;"/>
                </g>
            </g>
        </g>
        <g transform="matrix(0.696448,0.717607,-0.638216,0.619397,376.802394,118.328238)">
            <ellipse cx="100.725" cy="447.475" rx="24.667" ry="31.667" style="stroke:black;stroke-width:10.37px;"/>
        </g>
        <g transform="matrix(-0.696448,0.717607,0.638216,0.619397,143.264138,118.328238)">
            <ellipse cx="100.725" cy="447.475" rx="24.667" ry="31.667" style="stroke:black;stroke-width:10.37px;"/>
        </g>
        <g transform="matrix(0.420703,-0.340518,0.39097,0.483036,89.895597,280.009722)">
            <path d="M60.911,91.142C60.898,90.727 60.892,90.31 60.892,89.892C60.892,67.125 79.376,48.642 102.142,48.642C124.909,48.642 143.392,67.125 143.392,89.892C143.392,90.31 143.386,90.727 143.373,91.142L60.911,91.142Z" style="fill:white;stroke:black;stroke-width:7.58px;"/>
        </g>
        <g transform="matrix(0.404748,0.359336,-0.412577,0.464717,341.686701,208.805528)">
            <path d="M60.911,91.142C60.898,90.727 60.892,90.31 60.892,89.892C60.892,67.125 79.376,48.642 102.142,48.642C124.909,48.642 143.392,67.125 143.392,89.892C143.392,90.31 143.386,90.727 143.373,91.142L60.911,91.142Z" style="fill:white;stroke:black;stroke-width:7.58px;"/>
        </g>
    </g>
</svg>
